<?xml version="1.0" encoding="utf-8"?>
<!-- Generator: Adobe Illustrator 19.0.0, SVG Export Plug-In . SVG Version: 6.00 Build 0)  -->
<svg version="1.1" id="Layer_1" xmlns="http://www.w3.org/2000/svg" xmlns:xlink="http://www.w3.org/1999/xlink" x="0px" y="0px"
	 viewBox="0 0 792 400" style="enable-background:new 0 0 792 400;" xml:space="preserve">
<style type="text/css">
	.st0{opacity:0.97;fill:#FFFFFF;}
	.st1{fill:#8DC641;}
</style>
<g id="XMLID_24_">
	<path id="XMLID_31_" class="st0" d="M289.4,204.2c-3.6,0-6.8-1.3-9.4-3.9c-2.7-2.7-4-5.8-4-9.5v-136c0-3.7,1.3-6.9,4-9.5
		c2.6-2.6,5.7-3.9,9.4-3.9h34.4c22.4,0,41.6,7.9,57.5,23.8c15.8,15.9,23.8,35,23.8,57.4c0,22.4-7.9,41.6-23.8,57.4
		c-15.9,15.9-35.1,23.9-57.5,23.9l-34.2,0.5H289.4z M302.9,177.2l20.8-0.3c15.1,0,27.9-5.3,38.5-15.9c10.6-10.6,15.9-23.4,15.9-38.4
		c0-14.9-5.3-27.7-15.9-38.3c-10.6-10.7-23.4-16-38.4-16h-20.9V177.2z"/>
	<path id="XMLID_29_" class="st0" d="M480.4,204.2c-3.7,0-6.9-1.3-9.4-4c-2.7-2.6-4-5.7-4-9.4V55.2c0-3.7,1.3-6.9,4-9.4
		c2.6-2.7,5.7-4,9.4-4c3.7,0,6.9,1.3,9.4,4c2.7,2.6,4,5.7,4,9.4v135.6c0,3.7-1.3,6.9-4,9.4C487.3,202.9,484.2,204.2,480.4,204.2z"/>
	<path id="XMLID_27_" class="st0" d="M629.9,203.8c-22.4,0-41.6-8-57.5-23.9c-15.9-15.9-23.9-35.1-23.9-57.5
		c0-22.4,8-41.6,23.9-57.4c15.9-15.9,35.1-23.9,57.5-23.9c18.4,0,34.9,5.6,49.4,16.8c3,2.3,4.7,5.3,5.2,9c0.5,3.6-0.5,6.9-2.7,9.9
		c-2.3,3-5.2,4.7-8.9,5.1c-3.7,0.5-7-0.3-10-2.6c-9.8-7.5-20.8-11.3-33.1-11.3c-15,0-27.8,5.3-38.5,15.9
		c-10.6,10.7-15.9,23.5-15.9,38.4c0,15,5.3,27.8,15.9,38.5c10.7,10.6,23.5,15.9,38.5,15.9c14,0,26.2-4.7,36.6-14.2
		c0.2-0.2,0.4-0.4,0.8-0.7l0.1-29.8H623c-3.8,0-7-1.3-9.5-3.9c-2.7-2.7-4-5.8-4-9.5c0-3.7,1.3-6.9,4-9.5c2.6-2.7,5.8-4,9.5-4h58
		c3.7,0,6.9,1.3,9.5,4c2.7,2.7,4,5.8,4,9.5l-0.3,72.1c0,3.7-1.3,6.9-4,9.4c-2.6,2.7-5.7,4-9.4,4h-0.1c-3,0-5.8-0.9-8.2-2.8
		c-2.3-1.8-3.9-4.1-4.7-6.9C655.8,200.7,643.2,203.8,629.9,203.8z"/>
	<path id="XMLID_25_" class="st0" d="M769.4,204.2c-3.7,0-6.9-1.3-9.4-4c-2.7-2.6-4-5.7-4-9.4V55.2c0-3.7,1.3-6.9,4-9.4
		c2.6-2.7,5.7-4,9.4-4c3.7,0,6.9,1.3,9.4,4c2.7,2.6,4,5.7,4,9.4v135.6c0,3.7-1.3,6.9-4,9.4C776.3,202.9,773.2,204.2,769.4,204.2z"/>
</g>
<g id="XMLID_11_">
	<path id="XMLID_22_" class="st0" d="M302.1,277.8h-24.3c-1,0-1.9-0.3-2.6-1c-0.7-0.7-1-1.6-1-2.6s0.3-1.9,1-2.6
		c0.7-0.7,1.6-1.1,2.6-1.1h55.8c1,0,1.9,0.4,2.6,1.1c0.7,0.7,1.1,1.6,1.1,2.6s-0.4,1.9-1.1,2.6c-0.7,0.7-1.6,1-2.6,1h-24.3v77.1
		c0,1-0.4,1.9-1,2.6c-0.7,0.7-1.6,1-2.6,1c-1,0-1.8-0.3-2.6-1c-0.7-0.7-1-1.6-1-2.6V277.8z"/>
	<path id="XMLID_20_" class="st0" d="M436.6,270.6c1,0,1.8,0.3,2.6,1c0.7,0.7,1,1.6,1,2.6v54.1c0,8.3-2.9,15.4-8.8,21.3
		s-13,8.8-21.3,8.8c-8.3,0-15.4-2.9-21.3-8.8s-8.8-13-8.8-21.3v-54.1c0-1,0.3-1.9,1-2.6s1.6-1,2.6-1c1,0,1.8,0.3,2.5,1
		c0.7,0.7,1,1.6,1,2.6v54.1c0,6.3,2.3,11.8,6.8,16.2c4.5,4.5,9.9,6.8,16.2,6.8c6.3,0,11.7-2.3,16.2-6.8c4.5-4.5,6.8-9.9,6.8-16.2
		v-54.1c0-1,0.3-1.9,1-2.6C434.8,271,435.6,270.6,436.6,270.6z"/>
	<path id="XMLID_18_" class="st0" d="M512,277.8h-24.3c-1,0-1.9-0.3-2.6-1c-0.7-0.7-1-1.6-1-2.6s0.3-1.9,1-2.6
		c0.7-0.7,1.6-1.1,2.6-1.1h55.8c1,0,1.9,0.4,2.6,1.1c0.7,0.7,1.1,1.6,1.1,2.6s-0.4,1.9-1.1,2.6c-0.7,0.7-1.6,1-2.6,1h-24.3v77.1
		c0,1-0.4,1.9-1,2.6c-0.7,0.7-1.6,1-2.6,1c-1,0-1.8-0.3-2.6-1c-0.7-0.7-1-1.6-1-2.6V277.8z"/>
	<path id="XMLID_15_" class="st0" d="M628.7,358.6c-12.2,0-22.5-4.3-31.1-12.9c-8.6-8.6-12.9-19-12.9-31.1s4.3-22.5,12.9-31.1
		c8.6-8.6,19-12.9,31.1-12.9c12.2,0,22.5,4.3,31.1,12.9c8.6,8.6,12.9,19,12.9,31.1s-4.3,22.5-12.9,31.1
		C651.3,354.3,640.9,358.6,628.7,358.6z M628.7,277.8c-10.1,0-18.8,3.6-25.9,10.8c-7.2,7.2-10.8,15.8-10.8,25.9
		c0,10.1,3.6,18.8,10.8,25.9c7.2,7.2,15.8,10.8,25.9,10.8c10.1,0,18.8-3.6,25.9-10.8c7.2-7.2,10.8-15.8,10.8-25.9
		c0-10.1-3.6-18.8-10.8-25.9C647.5,281.4,638.9,277.8,628.7,277.8z"/>
	<path id="XMLID_12_" class="st0" d="M755.1,270.6c7.1,0,13.1,2.3,18.2,6.9c5,4.6,7.5,10.2,7.5,16.8c0,5.8-2,10.9-6.1,15.4
		c-4,4.4-9.1,7-15.2,8l17.5,35.7c0.5,0.9,0.5,1.8,0.2,2.8c-0.3,0.9-0.9,1.6-1.8,2.1c-0.5,0.2-1,0.4-1.6,0.4c-1.5,0-2.6-0.7-3.3-2
		l-19-38.5h-20.5v36.3c0,1-0.4,1.8-1.1,2.6c-0.7,0.7-1.6,1-2.6,1c-1,0-1.8-0.3-2.6-1c-0.7-0.7-1-1.6-1-2.6v-80.1c0-1,0.3-1.9,1-2.6
		c0.7-0.7,1.6-1,2.6-1H755.1z M773.5,294.3c0-4.5-1.8-8.4-5.4-11.6c-3.6-3.2-7.9-4.9-13-4.9h-24.1v32.9h24.6c5-0.1,9.2-1.7,12.7-4.9
		C771.8,302.6,773.5,298.8,773.5,294.3z"/>
</g>
<path id="XMLID_8_" class="st1" d="M188.5,61.9v273.7H31.2V61.9H188.5 M197.4,39.9h-175c-7.3,0-13.2,5.9-13.2,13.2v291.4
	c0,7.3,5.9,13.2,13.2,13.2h175c7.3,0,13.2-5.9,13.2-13.2V53.1C210.5,45.8,204.6,39.9,197.4,39.9L197.4,39.9z"/>
<path id="XMLID_7_" class="st1" d="M158.6,113.8H58c-3.5,0-6.3-2.8-6.3-6.3s2.8-6.3,6.3-6.3h100.7c3.5,0,6.3,2.8,6.3,6.3
	S162.1,113.8,158.6,113.8z"/>
<path id="XMLID_6_" class="st1" d="M160.2,218.6H59.6c-3.5,0-6.3-2.8-6.3-6.3s2.8-6.3,6.3-6.3h100.7c3.5,0,6.3,2.8,6.3,6.3
	S163.7,218.6,160.2,218.6z"/>
<path id="XMLID_5_" class="st1" d="M160.2,253.5H59.6c-3.5,0-6.3-2.8-6.3-6.3s2.8-6.3,6.3-6.3h100.7c3.5,0,6.3,2.8,6.3,6.3
	S163.7,253.5,160.2,253.5z"/>
<path id="XMLID_4_" class="st1" d="M160.2,288.4H59.6c-3.5,0-6.3-2.8-6.3-6.3c0-3.5,2.8-6.3,6.3-6.3h100.7c3.5,0,6.3,2.8,6.3,6.3
	C166.5,285.6,163.7,288.4,160.2,288.4z"/>
<path id="XMLID_3_" class="st1" d="M160.2,148.8H59.6c-3.5,0-6.3-2.8-6.3-6.3s2.8-6.3,6.3-6.3h100.7c3.5,0,6.3,2.8,6.3,6.3
	S163.7,148.8,160.2,148.8z"/>
<path id="XMLID_2_" class="st1" d="M160.2,183.7H59.6c-3.5,0-6.3-2.8-6.3-6.3s2.8-6.3,6.3-6.3h100.7c3.5,0,6.3,2.8,6.3,6.3
	S163.7,183.7,160.2,183.7z"/>
</svg>
